<svg xmlns="http://www.w3.org/2000/svg" width="96" height="27" fill="none" viewBox="0 0 96 27"><path fill="#262626" d="M4.89143 0.0945316C2.9462 0.90878 0.807736 3.20913 0.13234 6.09657C-0.722996 9.75507 2.83646 11.3021 3.1284 10.7949C3.47202 10.1988 2.49059 9.99727 2.28857 8.09907C2.02748 5.64739 3.16726 2.90791 4.60172 1.7059C4.86836 1.48258 4.85567 1.79341 4.85567 2.36834C4.85567 3.39645 4.79886 12.6259 4.79886 14.5521C4.79886 17.1584 4.69121 17.9815 4.49787 18.7948C4.30197 19.6189 3.98703 20.1758 4.22567 20.3903C4.4923 20.6303 5.6307 20.0595 6.28974 19.1397C7.08003 18.0365 7.35666 16.7117 7.40633 15.2729C7.46632 13.5386 7.46376 10.7864 7.46632 9.21667C7.46872 7.77694 7.49057 3.56112 7.44108 1.02672C7.42895 0.40508 5.70494 -0.247109 4.89134 0.0937754L4.89143 0.0945316ZM73.9666 12.2922C73.9039 13.6472 73.604 14.7063 73.2317 15.4533C72.511 16.8996 71.0157 17.3486 70.3807 15.2696C70.0347 14.1363 70.0186 12.2437 70.2673 10.6622C70.5206 9.05114 71.2276 7.83442 72.3984 7.94415C73.5533 8.05262 74.0938 9.54065 73.9666 12.2921V12.2922ZM54.4984 20.6989C54.4827 22.9503 54.1283 24.9243 53.3685 25.4976C52.2908 26.3106 50.8423 25.7008 51.1422 24.0579C51.4076 22.6041 52.6627 21.1194 54.5014 19.3054C54.5014 19.3054 54.5052 19.7191 54.4984 20.6989H54.4984ZM54.204 12.2791C54.1381 13.5132 53.8182 14.753 53.4691 15.4535C52.7486 16.8997 51.2423 17.3519 50.6181 15.2698C50.1914 13.8472 50.2936 12.0061 50.5047 10.846C50.7788 9.34084 51.443 7.94447 52.6358 7.94447C53.7956 7.94447 54.3675 9.21687 54.204 12.2792V12.2791ZM42.926 12.2602C42.8553 13.5673 42.6003 14.6599 42.1911 15.4535C41.4508 16.8898 39.9861 17.3453 39.3402 15.2698C38.8745 13.7732 39.033 11.7325 39.2267 10.6302C39.5142 8.99435 40.2341 7.83458 41.3579 7.94447C42.5122 8.05725 43.0734 9.54081 42.926 12.2603V12.2602ZM94.6105 13.7869C94.3283 13.7869 94.1995 14.0778 94.093 14.5674C93.7235 16.2698 93.335 16.6542 92.8342 16.6542C92.2746 16.6542 91.7718 15.8112 91.6426 14.1238C91.541 12.7969 91.5573 10.3541 91.6872 7.92417C91.7138 7.42491 91.576 6.93093 90.2369 6.44446C89.6607 6.23522 88.8231 5.92712 88.4061 6.93381C87.2277 9.77789 86.7667 12.0359 86.6582 12.9531C86.6526 13.0006 86.5944 13.0103 86.5842 12.8994C86.5151 12.1647 86.3606 10.8297 86.3414 8.0248C86.3376 7.47754 86.2217 7.01171 85.6177 6.63034C85.2257 6.38288 84.0355 5.9452 83.607 6.46589C83.2357 6.89174 82.8057 8.03775 82.3589 9.39621C81.9958 10.5003 81.7429 11.2472 81.7429 11.2472C81.7429 11.2472 81.7477 8.26811 81.752 7.13809C81.7539 6.71177 81.4615 6.56972 81.3733 6.54397C80.9765 6.42878 80.1945 6.23635 79.8626 6.23635C79.4531 6.23635 79.3528 6.46526 79.3528 6.7988C79.3528 6.84247 79.2882 10.7211 79.2882 13.4332C79.2882 13.551 79.2881 13.6795 79.2893 13.8161C79.0628 15.0626 78.3283 16.7547 77.5294 16.7547C76.7295 16.7547 76.3522 16.0473 76.3522 12.814C76.3522 10.9278 76.4088 10.1077 76.4366 8.74345C76.4528 7.95767 76.484 7.35427 76.4822 7.21733C76.4763 6.79742 75.7502 6.58577 75.4123 6.50756C75.0729 6.42868 74.7779 6.39813 74.5475 6.41125C74.2215 6.42964 73.9909 6.64353 73.9909 6.93771C73.9909 7.09544 73.9927 7.39538 73.9927 7.39538C73.5727 6.73551 72.8974 6.27623 72.448 6.14314C71.2377 5.7837 69.9747 6.10219 69.0221 7.43522C68.265 8.49437 67.8086 9.69398 67.6289 11.4175C67.4976 12.6775 67.5405 13.9552 67.7739 15.0358C67.4918 16.2551 66.9683 16.7547 66.3949 16.7547C65.5626 16.7547 64.9592 15.3962 65.0293 13.0466C65.0755 11.5012 65.3847 10.4167 65.7227 8.84774C65.8669 8.17891 65.7498 7.82873 65.4561 7.49312C65.1867 7.18534 64.6127 7.02809 63.7876 7.2215C63.1999 7.35939 62.3595 7.50767 61.5907 7.62158C61.5907 7.62158 61.6371 7.43649 61.6752 7.11016C61.8752 5.39881 60.0155 5.53766 59.4222 6.08427C59.068 6.41061 58.8269 6.7955 58.7354 7.48753C58.5903 8.58572 59.486 9.1037 59.486 9.1037C59.1921 10.4489 58.4718 12.2061 57.7281 13.4766C57.3298 14.1573 57.0251 14.6617 56.6317 15.1979C56.6302 14.9982 56.6292 14.7986 56.6284 14.5999C56.6194 11.7718 56.6571 9.54596 56.6737 8.74371C56.6899 7.95795 56.7214 7.37054 56.7196 7.23361C56.7152 6.92647 56.5358 6.81049 56.1628 6.66363C55.8329 6.53374 55.4429 6.44384 55.0383 6.41248C54.5277 6.37265 54.2201 6.64348 54.2281 6.96374C54.2297 7.02421 54.2297 7.3955 54.2297 7.3955C53.8097 6.73562 53.1343 6.27635 52.685 6.14325C51.4747 5.78396 50.2117 6.10246 49.2591 7.43533C48.5021 8.49448 48.0064 9.98075 47.8659 11.4045C47.7351 12.7314 47.7592 13.859 47.9376 14.8089C47.7451 15.7601 47.1918 16.7548 46.5662 16.7548C45.7663 16.7548 45.3112 16.0474 45.3112 12.8141C45.3112 10.9279 45.3678 10.1078 45.3957 8.74371C45.4118 7.95795 45.443 7.35439 45.4413 7.21761C45.4354 6.79769 44.7092 6.58605 44.3714 6.50767C44.0179 6.42592 43.7126 6.39585 43.4783 6.41312C43.1691 6.43616 42.9517 6.71307 42.9517 6.91959V7.3955C42.5317 6.73562 41.8564 6.27635 41.407 6.14325C40.1967 5.78396 38.9408 6.10759 37.9811 7.43533C37.3553 8.30108 36.8487 9.2609 36.5879 11.3856C36.5126 11.9996 36.4793 12.5746 36.4836 13.112C36.2341 14.6381 35.1319 16.3971 34.2303 16.3971C33.7027 16.3971 33.2003 15.3738 33.2003 13.1929C33.2003 10.2879 33.3801 6.15173 33.4105 5.7531C33.4105 5.7531 34.5496 5.73374 34.7702 5.73117C35.3384 5.72493 35.853 5.73837 36.6098 5.69966C36.9894 5.6803 37.3551 4.318 36.9634 4.1494C36.7858 4.07309 35.5308 4.00623 35.0333 3.99567C34.615 3.98619 33.4505 3.90001 33.4505 3.90001C33.4505 3.90001 33.5549 1.15461 33.5792 0.864595C33.5999 0.622879 33.2871 0.498428 33.1078 0.422912C32.6717 0.238472 32.2816 0.150163 31.8191 0.0548234C31.1802 -0.0769846 30.8903 0.0519437 30.8337 0.5912C30.7484 1.40961 30.7042 3.80674 30.7042 3.80674C30.2354 3.80674 28.6338 3.71509 28.1647 3.71509C27.729 3.71509 27.2587 5.58913 27.8611 5.61216C28.5543 5.63904 29.7622 5.66223 30.563 5.68639C30.563 5.68639 30.5273 9.89069 30.5273 11.1887C30.5273 11.3268 30.5285 11.4598 30.5288 11.5888C30.0881 13.886 28.5357 15.1268 28.5357 15.1268C28.8691 13.6071 28.1881 12.4659 26.9615 11.4999C26.5095 11.1439 25.6174 10.4699 24.6192 9.73139C24.6192 9.73139 25.1973 9.16159 25.71 8.01525C26.0733 7.20325 26.089 6.27398 25.1973 6.06907C23.724 5.73025 22.5092 6.81227 22.1469 7.96742C21.8661 8.86228 22.0159 9.52631 22.5658 10.2161C22.606 10.2665 22.6495 10.318 22.6944 10.3698C22.3619 11.0109 21.905 11.8739 21.518 12.5432C20.444 14.4014 19.6326 15.8712 19.0195 15.8712C18.5293 15.8712 18.5359 14.3789 18.5359 12.9818C18.5359 11.7774 18.6248 9.96655 18.6958 8.09171C18.7194 7.47167 18.4093 7.11845 17.8896 6.79852C17.5738 6.60416 16.8999 6.22199 16.5095 6.22199C15.9253 6.22199 14.2397 6.30149 12.6471 10.9084C12.4464 11.4891 12.0521 12.5472 12.0521 12.5472L12.086 7.00712C12.086 6.87723 12.0168 6.75165 11.8584 6.66574C11.59 6.52001 10.8732 6.22199 10.2359 6.22199C9.93218 6.22199 9.78063 6.36325 9.78063 6.64479L9.72503 15.3122C9.72503 15.9708 9.7422 16.7391 9.80732 17.0751C9.87219 17.4115 9.97728 17.6852 10.1074 17.8481C10.2374 18.0106 10.3878 18.1346 10.6357 18.1858C10.8664 18.2333 12.1297 18.3955 12.1954 17.9127C12.274 17.3341 12.277 16.7083 12.9404 14.3743C13.9731 10.7406 15.3196 8.9677 15.9526 8.33806C16.0633 8.22801 16.1897 8.22145 16.1836 8.40157C16.1566 9.19822 16.0615 11.1889 15.9976 12.8801C15.8261 17.4059 16.6494 18.2448 17.826 18.2448C18.7262 18.2448 19.995 17.3504 21.3553 15.0864C22.2033 13.6755 23.0266 12.292 23.6182 11.2949C24.0304 11.6766 24.493 12.0873 24.9554 12.5261C26.0297 13.5458 26.3824 14.5147 26.1484 15.4338C25.9694 16.1365 25.2953 16.8607 24.0955 16.1568C23.7458 15.9515 23.5966 15.7928 23.245 15.5613C23.056 15.4369 22.7676 15.3998 22.5947 15.5301C22.1455 15.8687 21.8886 16.2995 21.7419 16.8329C21.5992 17.3518 22.1189 17.6262 22.6577 17.8661C23.1216 18.0726 24.1187 18.2598 24.7546 18.2811C27.2322 18.364 29.2169 17.0848 30.5986 13.7853C30.8459 16.6349 31.8985 18.2473 33.7273 18.2473C34.9499 18.2473 36.1758 16.667 36.7118 15.1123C36.8657 15.746 37.0935 16.2971 37.3877 16.7631C38.7969 18.9958 41.5306 18.5153 42.9038 16.6194C43.3283 16.0335 43.3929 15.823 43.3929 15.823C43.5932 17.6132 45.0349 18.2387 45.8603 18.2387C46.7848 18.2387 47.7393 17.8017 48.4083 16.2956C48.4867 16.459 48.5723 16.6151 48.6657 16.7631C50.0748 18.9958 52.8086 18.5152 54.1817 16.6193C54.2465 16.5304 54.3027 16.4497 54.3518 16.3773L54.3921 17.5532C54.3921 17.5532 53.6087 18.2718 53.1279 18.7127C51.0115 20.6544 49.4022 22.1275 49.2838 23.843C49.1318 26.0305 50.9059 26.8434 52.248 26.95C53.6734 27.0631 54.8939 26.2757 55.6442 25.1738C56.304 24.2039 56.736 22.1165 56.7043 20.0548C56.6917 19.2292 56.6709 18.1795 56.6545 17.0543C57.3984 16.1904 58.2365 15.0986 59.0082 13.8206C59.8491 12.4279 60.7504 10.5576 61.2119 9.10203C61.2119 9.10203 61.995 9.10875 62.8306 9.05404C63.0979 9.03661 63.1747 9.09115 63.1253 9.28712C63.0656 9.52387 62.0695 13.366 62.9786 15.9255C63.6009 17.6777 65.0037 18.2414 65.8353 18.2414C66.8089 18.2414 67.7403 17.5062 68.2394 16.4144C68.2995 16.5361 68.3624 16.6539 68.431 16.7626C69.8402 18.9953 72.5643 18.5119 73.9471 16.6188C74.2591 16.1917 74.4362 15.8225 74.4362 15.8225C74.733 17.6753 76.1738 18.2476 76.9991 18.2476C77.8588 18.2476 78.6746 17.8952 79.3366 16.329C79.3642 17.0186 79.4078 17.5825 79.4765 17.7602C79.5185 17.869 79.7627 18.0055 79.9405 18.0714C80.7269 18.363 81.529 18.2251 81.8257 18.1651C82.0313 18.1235 82.1915 17.9586 82.2135 17.5327C82.271 16.4146 82.2357 14.5359 82.5747 13.1396C83.1437 10.7964 83.6745 9.88748 83.9263 9.43749C84.0672 9.18537 84.2262 9.14378 84.232 9.41061C84.2438 9.9505 84.2707 11.536 84.4911 13.6661C84.653 15.2328 84.8693 16.1588 85.0355 16.4518C85.5098 17.2899 86.0956 17.3296 86.5726 17.3296C86.8761 17.3296 87.5107 17.2457 87.4539 16.7124C87.4262 16.4524 87.4747 14.8459 88.0357 12.5374C88.402 11.0298 89.0128 9.66766 89.2331 9.16969C89.3143 8.98604 89.3521 9.13081 89.3508 9.15901C89.3044 10.1972 89.2003 13.593 89.6232 15.4503C90.1966 17.9663 91.8551 18.2478 92.4331 18.2478C93.6669 18.2478 94.676 17.3093 95.016 14.8397C95.0979 14.2454 94.9766 13.7865 94.6133 13.7865"/></svg>